Coordinates
version=1
nRows=11
nColumns=46
inDegrees=yes

Units are S.I. units (second, meters, Newtons, ...)
Angles are in degrees.

endheader
time	pelvis_tilt	pelvis_list	pelvis_rotation	pelvis_tx	pelvis_ty	pelvis_tz	bb_angle	bb_tx	bb_ty	bb_tz	hip_flexion_r	hip_adduction_r	hip_rotation_r	knee_angle_r	knee_angle_r_beta	ankle_angle_r	subtalar_angle_r	mtp_angle_r	crank_angle_r	hip_flexion_l	hip_adduction_l	hip_rotation_l	knee_angle_l	knee_angle_l_beta	ankle_angle_l	subtalar_angle_l	mtp_angle_l	crank_angle_l	lumbar_extension	lumbar_bending	lumbar_rotation	arm_flex_r	arm_add_r	arm_rot_r	elbow_flex_r	pro_sup_r	wrist_flex_r	wrist_dev_r	arm_flex_l	arm_add_l	arm_rot_l	elbow_flex_l	pro_sup_l	wrist_flex_l	wrist_dev_l
      2.50500000	    -11.23320233	     -4.54230678	      4.14023820	      0.30929930	      1.18968605	     -0.22823042	      0.00000000	      0.50000000	      0.00000000	      0.25000000	     60.23736630	      1.37729094	      2.15043514	    109.38257935	      1.90908615	      4.53464384	     -7.76296604	      0.00000000	      0.00000000	     16.01841220	     -9.59091327	     -6.45216539	     21.96466544	      0.38335573	     -0.76411237	     10.47178410	      0.00000000	      0.00000000	    -53.66197772	     13.45623959	     -2.58245905	     54.62831509	     -0.44329304	     25.85034493	     48.42851335	     47.47424317	      0.00000000	      0.00000000	     45.67420562	    -26.18968203	     26.07251540	     61.47304165	     51.85043199	      0.00000000	      0.00000000
      2.51000000	    -11.40455149	     -4.56353532	      3.52180731	      0.30899823	      1.19292674	     -0.22816507	      0.00000000	      0.50000000	      0.00000000	      0.25000000	     60.67789265	      1.98603908	      2.51932004	    108.97812563	      1.90202710	      5.33429586	     -7.97309574	      0.00000000	      0.00000000	     15.24631027	     -9.64256069	     -7.13853657	     20.81944232	      0.36336782	     -2.52227422	     10.18559538	      0.00000000	      0.00000000	    -54.05156748	     13.42736485	     -1.32987459	     54.74822219	     -1.24482237	     25.79953729	     49.10579324	     47.72397312	      0.00000000	      0.00000000	     46.58257569	    -24.72495882	     25.73263819	     59.74088185	     51.72951770	      0.00000000	      0.00000000
      2.51500000	    -11.79644062	     -4.73798568	      2.95473299	      0.30848073	      1.19588440	     -0.22797593	      0.00000000	      0.50000000	      0.00000000	      0.25000000	     61.33144530	      2.66173350	      2.70313694	    108.49285764	      1.89355758	      6.18280036	     -8.31984307	      0.00000000	      0.00000000	     14.89822675	     -9.85215006	     -7.68694188	     19.93668804	      0.34796085	     -4.26586357	      9.93566119	      0.00000000	      0.00000000	    -54.28963177	     13.61888155	     -0.70580590	     55.13510794	     -1.11929581	     25.84000750	     49.16223217	     47.74746405	      0.00000000	      0.00000000	     46.71467057	    -24.66845037	     25.58186648	     59.53844258	     51.69853028	      0.00000000	      0.00000000
      2.52000000	    -12.05489955	     -4.78046682	      2.26405118	      0.30801357	      1.19917743	     -0.22761702	      0.00000000	      0.50000000	      0.00000000	      0.25000000	     61.76864583	      3.37363972	      3.00860981	    107.90842578	      1.88335732	      6.96828010	     -8.81742370	      0.00000000	      0.00000000	     14.31362433	     -9.91803076	     -8.29785745	     18.95262298	      0.33078567	     -6.02829902	      9.51122696	      0.00000000	      0.00000000	    -54.67727753	     13.56164162	      0.02029770	     55.60930058	     -1.16364967	     25.96623186	     49.13695281	     47.78722314	      0.00000000	      0.00000000	     47.06768386	    -24.19931662	     25.11639371	     58.94756345	     51.59236729	      0.00000000	      0.00000000
      2.52500000	    -12.59230169	     -4.99854370	      1.68128172	      0.30743604	      1.20207386	     -0.22733711	      0.00000000	      0.50000000	      0.00000000	      0.25000000	     62.48263066	      4.04261031	      3.11425970	    107.23006534	      1.87151770	      7.74052605	     -9.07497356	      0.00000000	      0.00000000	     14.24596398	    -10.17415296	     -8.71594740	     18.30202081	      0.31943052	     -7.59633267	      9.22721613	      0.00000000	      0.00000000	    -54.80481283	     13.76182971	      0.60715542	     55.98827545	     -1.01118385	     26.06374842	     49.22526894	     47.81900550	      0.00000000	      0.00000000	     47.17815040	    -24.17260380	     24.91346375	     58.69155821	     51.53998571	      0.00000000	      0.00000000
      2.53000000	    -12.93596463	     -5.02293911	      0.95207902	      0.30685058	      1.20534556	     -0.22689270	      0.00000000	      0.50000000	      0.00000000	      0.25000000	     62.91713076	      4.71383759	      3.38362460	    106.47546123	      1.85834737	      8.51665685	     -9.51991381	      0.00000000	      0.00000000	     13.84077119	    -10.20884636	     -9.14191940	     17.51175309	      0.30563775	     -9.27703690	      8.51007057	      0.00000000	      0.00000000	    -55.11693636	     13.62657942	      1.37450237	     56.49104878	     -1.21473444	     26.46379641	     49.29248572	     47.93869438	      0.00000000	      0.00000000	     47.60489283	    -23.37195442	     24.10648125	     57.73119981	     51.38749829	      0.00000000	      0.00000000
      2.53500000	    -13.41367280	     -5.11537892	      0.38777260	      0.30619180	      1.20805751	     -0.22643340	      0.00000000	      0.50000000	      0.00000000	      0.25000000	     63.59839485	      5.16779891	      3.49513413	    105.74699889	      1.84563330	      9.13267752	     -9.65714084	      0.00000000	      0.00000000	     13.80339389	    -10.35397007	     -9.39203111	     17.11366566	      0.29868981	    -10.41624421	      8.32367434	      0.00000000	      0.00000000	    -55.31873354	     13.67207803	      1.79943270	     56.96092310	     -0.97856521	     26.52254922	     49.48024704	     47.97655453	      0.00000000	      0.00000000	     47.79327138	    -23.48152056	     23.97643660	     57.63213242	     51.36408721	      0.00000000	      0.00000000
      2.54000000	    -13.90260881	     -5.15430524	     -0.47110405	      0.30551542	      1.21096408	     -0.22556829	      0.00000000	      0.50000000	      0.00000000	      0.25000000	     64.12624400	      5.93376939	      3.80590888	    104.84126485	      1.82982526	      9.82596788	     -9.76912833	      0.00000000	      0.00000000	     13.67611939	    -10.48518757	     -9.84419313	     16.67871817	      0.29109855	    -11.76011938	      7.53155287	      0.00000000	      0.00000000	    -55.53541402	     13.43055162	      2.37348598	     57.34050636	     -0.83826741	     26.68788934	     49.65269134	     48.03638404	      0.00000000	      0.00000000	     47.90745795	    -23.40570306	     23.63534545	     57.41701893	     51.31539077	      0.00000000	      0.00000000
      2.54500000	    -14.42597237	     -5.21727900	     -1.11912451	      0.30447352	      1.21365763	     -0.22475086	      0.00000000	      0.50000000	      0.00000000	      0.25000000	     64.66399290	      6.53356858	      4.01028350	    103.92552001	      1.81384250	     10.56133793	     -9.85877723	      0.00000000	      0.00000000	     13.79512462	    -10.63765295	     -9.86298401	     16.57628554	      0.28931076	    -12.49491131	      7.18036756	      0.00000000	      0.00000000	    -55.72217842	     13.31850748	      2.76568550	     57.85371293	     -0.58007504	     26.76722936	     49.90193709	     48.08609235	      0.00000000	      0.00000000	     48.17566726	    -23.51543670	     23.39257217	     57.30368607	     51.27456097	      0.00000000	      0.00000000
      2.55000000	    -14.99918688	     -5.26378197	     -1.82887105	      0.30350085	      1.21616491	     -0.22410705	      0.00000000	      0.50000000	      0.00000000	      0.25000000	     65.08578432	      7.04017403	      4.00614786	    102.85807784	      1.79521212	     11.79185052	    -10.29508136	      0.00000000	      0.00000000	     13.96048440	    -10.74534714	     -9.88675275	     16.43795118	      0.28689637	    -13.26151576	      7.54611479	      0.00000000	      0.00000000	    -55.83208067	     13.17355899	      3.15829241	     58.27878242	     -0.37129641	     26.88417046	     50.17908855	     48.14730675	      0.00000000	      0.00000000	     48.31736204	    -23.56786188	     23.09905452	     57.18453849	     51.23068964	      0.00000000	      0.00000000
      2.55500000	    -15.56239312	     -5.33414060	     -2.57528802	      0.30244527	      1.21854961	     -0.22325099	      0.00000000	      0.50000000	      0.00000000	      0.25000000	     65.52109828	      7.56377878	      4.05937588	    101.75459356	      1.77595269	     12.70188050	    -10.41936017	      0.00000000	      0.00000000	     14.16912191	    -10.92854901	     -9.81044134	     16.47013698	      0.28745812	    -13.44167732	      7.57532129	      0.00000000	      0.00000000	    -56.00224221	     12.95316841	      3.57921797	     58.79359764	     -0.11063470	     26.98159219	     50.49875665	     48.20935636	      0.00000000	      0.00000000	     48.53104603	    -23.68818502	     22.82232735	     57.11130864	     51.19082999	      0.00000000	      0.00000000
